<?xml version="1.0" standalone="no"?>
<!DOCTYPE svg PUBLIC "-//W3C//DTD SVG 20010904//EN"
 "http://www.w3.org/TR/2001/REC-SVG-20010904/DTD/svg10.dtd">
<svg version="1.0" xmlns="http://www.w3.org/2000/svg"
 width="913.000000pt" height="913.000000pt" viewBox="0 0 913.000000 913.000000"
 preserveAspectRatio="xMidYMid meet">

<g transform="translate(0.000000,913.000000) scale(0.100000,-0.100000)"
fill="#000000" stroke="none">
<path d="M0 4565 l0 -4565 4565 0 4565 0 0 4565 0 4565 -4565 0 -4565 0 0
-4565z m4487 2614 c307 -176 577 -332 601 -346 l43 -25 -233 -226 c-128 -125
-354 -345 -502 -490 -148 -144 -271 -261 -272 -259 -2 2 -17 120 -34 262 -17
142 -33 261 -35 264 -9 8 -136 -20 -230 -51 -265 -89 -494 -249 -659 -462
-131 -169 -200 -313 -256 -533 l-11 -43 -66 0 -66 0 6 148 c20 538 291 1042
707 1317 152 100 238 142 410 200 l95 32 -3 34 c-8 86 -53 456 -57 477 -3 12
-3 22 0 22 2 0 255 -144 562 -321z m1087 -218 c332 -84 619 -310 775 -610 40
-77 91 -201 91 -221 0 -6 -65 -10 -168 -10 l-169 0 -37 75 c-77 156 -217 295
-376 375 -99 50 -193 78 -313 93 l-98 12 81 79 c44 44 77 82 73 86 -4 4 -52
37 -105 74 -54 37 -101 72 -104 78 -14 22 223 1 350 -31z m1728 -1059 c81 -40
158 -121 191 -202 l22 -55 0 -1865 0 -1865 -23 -57 c-33 -81 -108 -160 -190
-200 l-67 -33 -1315 0 -1315 0 -56 28 c-88 43 -143 98 -186 185 l-38 76 0
1865 0 1866 31 66 c54 113 122 174 232 210 54 17 124 18 1352 16 l1295 -2 67
-33z m-3333 -917 c55 -28 62 -63 59 -290 l-3 -205 -33 -32 -32 -33 -1135 0
-1135 0 -32 33 -33 32 -3 210 c-3 234 2 260 61 285 49 22 2245 22 2286 0z m23
-773 l33 -32 0 -220 0 -220 -33 -32 -32 -33 -1135 0 -1135 0 -32 33 -33 32 0
219 0 219 25 27 c14 15 34 31 45 36 11 4 525 7 1142 6 l1123 -2 32 -33z m0
-750 l33 -32 3 -198 c4 -226 -3 -263 -51 -292 -31 -19 -59 -20 -1152 -20
-1093 0 -1121 1 -1152 20 -48 29 -55 66 -51 291 3 180 5 199 23 219 45 51 1
50 1197 47 l1118 -2 32 -33z m-276 -873 c213 -29 307 -122 308 -304 1 -104
-17 -164 -67 -221 -72 -82 -174 -116 -349 -117 l-98 0 -1 -128 c-1 -71 -3
-138 -4 -149 -1 -11 -3 -27 -4 -35 -1 -12 -19 -15 -101 -15 l-100 0 0 475 0
475 23 5 c85 21 293 28 393 14z m-1448 -91 l3 -88 -221 0 -220 0 0 -110 0
-110 195 0 196 0 -3 -87 -3 -88 -192 -3 -193 -2 0 -195 0 -195 -105 0 -105 0
0 478 c0 263 3 482 7 485 4 4 149 6 322 5 l316 -3 3 -87z m900 0 l3 -88 -146
0 -145 0 0 -395 0 -395 -105 0 -105 0 0 395 0 395 -145 0 -145 0 0 90 0 90
393 -2 392 -3 3 -87z"/>
<path d="M4682 5577 l-22 -23 0 -1548 0 -1547 25 -24 24 -25 1214 0 1214 0 21
23 22 23 0 1552 c0 1539 0 1552 -20 1572 -20 20 -33 20 -1238 20 l-1219 0 -21
-23z"/>
<path d="M5715 2171 c-50 -21 -60 -47 -60 -157 0 -100 1 -105 28 -131 l27 -28
197 -3 c136 -2 205 0 225 9 44 18 58 56 58 154 0 96 -14 134 -55 153 -30 14
-387 16 -420 3z"/>
<path d="M1892 4810 c-18 -11 -40 -37 -49 -58 -21 -50 -2 -107 46 -139 40 -27
71 -29 115 -8 71 34 88 122 33 181 -42 46 -96 55 -145 24z"/>
<path d="M1900 4063 c-21 -11 -42 -33 -53 -56 -17 -33 -17 -42 -5 -79 14 -47
64 -88 105 -88 72 0 129 63 120 133 -11 81 -95 127 -167 90z"/>
<path d="M2273 4060 c-39 -24 -54 -50 -55 -99 0 -48 15 -77 55 -101 79 -49
177 7 177 100 0 46 -27 90 -65 106 -46 19 -74 18 -112 -6z"/>
<path d="M1900 3312 c-50 -24 -76 -81 -61 -131 14 -49 50 -81 98 -88 79 -10
141 51 130 129 -6 46 -29 75 -74 94 -42 18 -51 18 -93 -4z"/>
<path d="M3505 2408 c-2 -7 -3 -74 -2 -148 l2 -135 100 0 c157 1 209 39 208
152 -1 103 -59 142 -211 143 -65 0 -94 -4 -97 -12z"/>
</g>
</svg>
